<mxfile host="app.diagrams.net" agent="Mozilla/5.0 (Windows NT 10.0; Win64; x64) AppleWebKit/537.36 (KHTML, like Gecko) Chrome/133.0.0.0 Safari/537.36" version="26.0.16">
  <diagram name="Page-1" id="r128Ip_6LHheAOIcz-ol">
    <mxGraphModel dx="1050" dy="1657" grid="1" gridSize="10" guides="1" tooltips="1" connect="1" arrows="1" fold="1" page="1" pageScale="1" pageWidth="850" pageHeight="1100" math="0" shadow="0">
      <root>
        <mxCell id="0" />
        <mxCell id="1" parent="0" />
        <mxCell id="uL-ic_s042EPm6hbtn4--1" value="" style="whiteSpace=wrap;html=1;aspect=fixed;" vertex="1" parent="1">
          <mxGeometry x="100" y="-30" width="690" height="690" as="geometry" />
        </mxCell>
        <mxCell id="uL-ic_s042EPm6hbtn4--2" value="Button" style="labelPosition=center;verticalLabelPosition=middle;align=center;html=1;shape=mxgraph.basic.button;dx=10;whiteSpace=wrap;" vertex="1" parent="1">
          <mxGeometry x="100" y="-30" width="100" height="60" as="geometry" />
        </mxCell>
        <mxCell id="uL-ic_s042EPm6hbtn4--3" value="Button" style="labelPosition=center;verticalLabelPosition=middle;align=center;html=1;shape=mxgraph.basic.button;dx=10;whiteSpace=wrap;" vertex="1" parent="1">
          <mxGeometry x="460" y="-30" width="100" height="60" as="geometry" />
        </mxCell>
        <mxCell id="uL-ic_s042EPm6hbtn4--4" value="Button" style="labelPosition=center;verticalLabelPosition=middle;align=center;html=1;shape=mxgraph.basic.button;dx=10;whiteSpace=wrap;" vertex="1" parent="1">
          <mxGeometry x="220" y="-30" width="100" height="60" as="geometry" />
        </mxCell>
        <mxCell id="uL-ic_s042EPm6hbtn4--5" value="Button" style="labelPosition=center;verticalLabelPosition=middle;align=center;html=1;shape=mxgraph.basic.button;dx=10;whiteSpace=wrap;" vertex="1" parent="1">
          <mxGeometry x="340" y="-30" width="100" height="60" as="geometry" />
        </mxCell>
        <mxCell id="uL-ic_s042EPm6hbtn4--6" value="" style="shape=actor;whiteSpace=wrap;html=1;" vertex="1" parent="1">
          <mxGeometry x="760" y="-30" width="30" height="50" as="geometry" />
        </mxCell>
        <mxCell id="uL-ic_s042EPm6hbtn4--7" value="Button" style="labelPosition=center;verticalLabelPosition=middle;align=center;html=1;shape=mxgraph.basic.button;dx=10;whiteSpace=wrap;" vertex="1" parent="1">
          <mxGeometry x="580" y="-30" width="100" height="60" as="geometry" />
        </mxCell>
      </root>
    </mxGraphModel>
  </diagram>
</mxfile>
